# xmcd
#
# Track frame offsets: 
#        150
#        20395
#        35830
#        60604
#        79797
#        101401
#        124556
#        151647
#        172448
#        189177
#        207034
#        223647
#
# Disc length: 3380 seconds
#
# Revision: 2
# Processed by: cddbd v1.5.2PL0 Copyright (c) Steve Scherf et al.
# Submitted via: ExactAudioCopy v1.3
#
DISCID=990d320c
DTITLE=Freq Nasty - Bring Me The Head Of Freq Nasty
DYEAR=2003
DGENRE=Electronic
TTITLE0=Come Let Me Know (feat. Rodney P)
TTITLE1=Fresh
TTITLE2=Boomba Clat (feat. Roots Manuva and Yolanda)
TTITLE3=Amped
TTITLE4=Brooklyn 2 Brixton (feat. Kovas)
TTITLE5=Sil Num Tao
TTITLE6=Clit Licka
TTITLE7=Punkadelic
TTITLE8=Goose
TTITLE9=2 Females
TTITLE10=La Machina Latina
TTITLE11=Mad Situation (feat. Junior Delgado)
EXTD=
EXTT0=
EXTT1=
EXTT2=
EXTT3=
EXTT4=
EXTT5=
EXTT6=
EXTT7=
EXTT8=
EXTT9=
EXTT10=
EXTT11=
PLAYORDER=
